<svg width="84" height="84" viewBox="0 0 84 84" fill="none" xmlns="http://www.w3.org/2000/svg">
<g clip-path="url(#clip0_64_401)">
<path d="M34.9219 74.0508C36.4336 74.0508 37.6289 73.3827 38.4727 72.0819L71.6952 19.7695C72.3282 18.75 72.5742 17.9766 72.5742 17.168C72.5742 15.2344 71.3085 13.9688 69.375 13.9688C67.9686 13.9688 67.1952 14.4258 66.3516 15.7617L34.7812 66.0702L18.3984 44.625C17.5195 43.3944 16.6406 42.9024 15.375 42.9024C13.3711 42.9024 12 44.2734 12 46.2069C12 47.0157 12.3516 47.9298 13.0195 48.7734L31.2656 72.0117C32.3203 73.3827 33.4102 74.0508 34.9219 74.0508Z" fill="#D6A62B"/>
</g>
<defs>
<clipPath id="clip0_64_401">
<rect width="60.5742" height="62.0508" fill="white" transform="translate(12 12)"/>
</clipPath>
</defs>
</svg>
