<svg width="84" height="84" viewBox="0 0 84 84" fill="none" xmlns="http://www.w3.org/2000/svg">
<g clip-path="url(#clip0_64_392)">
<path d="M12 67.371C12 74.7186 15.6211 78.375 22.8984 78.375H60.2343C67.5117 78.375 71.1327 74.7186 71.1327 67.371V14.0391C71.1327 6.72657 67.5117 3 60.2343 3H22.8984C15.6211 3 12 6.72657 12 14.0391V67.371ZM17.6602 67.2657V14.1445C17.6602 10.6289 19.5234 8.66016 23.1797 8.66016H59.9532C63.6093 8.66016 65.4726 10.6289 65.4726 14.1445V67.2657C65.4726 70.7814 63.6093 72.7149 59.9532 72.7149H23.1797C19.5234 72.7149 17.6602 70.7814 17.6602 67.2657Z" fill="#D6A62B"/>
<path d="M26.2734 44.2735C28.1016 44.2735 29.543 42.7969 29.543 41.0041C29.543 39.1759 28.1016 37.7344 26.2734 37.7344C24.5156 37.7344 23.0039 39.211 23.0039 41.0041C23.0039 42.7618 24.5156 44.2735 26.2734 44.2735ZM36.1875 43.1836H57.9492C59.1444 43.1836 60.129 42.1993 60.129 41.0041C60.129 39.8086 59.1798 38.8243 57.9492 38.8243H36.1875C34.957 38.8243 34.0078 39.8086 34.0078 41.0041C34.0078 42.1993 34.9922 43.1836 36.1875 43.1836Z" fill="#D6A62B"/>
<path d="M26.2734 33.0234C28.1016 33.0234 29.543 31.5469 29.543 29.7539C29.543 27.9258 28.1016 26.5195 26.2734 26.5195C24.4805 26.5195 23.0039 27.9609 23.0039 29.7539C23.0039 31.5469 24.4805 33.0234 26.2734 33.0234ZM36.1875 31.9336H57.9492C59.1798 31.9336 60.129 30.9844 60.129 29.7539C60.129 28.5234 59.1798 27.5742 57.9492 27.5742H36.1875C34.957 27.5742 34.0078 28.5234 34.0078 29.7539C34.0078 30.9844 34.957 31.9336 36.1875 31.9336Z" fill="#D6A62B"/>
<path d="M26.2734 22.2656C28.1016 22.2656 29.543 20.8242 29.543 18.9961C29.543 17.2031 28.1016 15.7266 26.2734 15.7266C24.5156 15.7266 23.0039 17.2383 23.0039 18.9961C23.0039 20.7891 24.5156 22.2656 26.2734 22.2656ZM36.1875 21.2109H57.9492C59.1444 21.2109 60.129 20.2266 60.129 18.9961C60.129 17.8008 59.1444 16.8164 57.9492 16.8164H36.1875C34.9922 16.8164 34.0078 17.8008 34.0078 18.9961C34.0078 20.2266 34.9922 21.2109 36.1875 21.2109Z" fill="#D6A62B"/>
</g>
<defs>
<clipPath id="clip0_64_392">
<rect width="59.1327" height="75.4101" fill="white" transform="translate(12 3)"/>
</clipPath>
</defs>
</svg>
