<svg width="35" height="40" viewBox="0 0 35 40" fill="none" xmlns="http://www.w3.org/2000/svg">
<path d="M26.204 0.0124969C26.1953 0.0218697 26.043 0.0718727 25.862 0.124996C24.066 0.656246 22.4683 2.00312 21.5459 3.76562C20.6522 5.47812 20.3994 7.41249 20.816 9.40312L20.8821 9.725L20.7097 9.98125C18.4626 13.2937 11.408 21.0094 7.71546 24.1906C7.5258 24.3562 7.33902 24.5125 7.29879 24.5375C7.24707 24.5719 7.11201 24.5906 6.81029 24.6062C5.06316 24.6844 3.36201 25.5031 2.10052 26.875C0.994194 28.0781 0.270056 29.6969 0.0861482 31.375C0.0689068 31.5375 0.0430447 31.7562 0.0258033 31.8625C-0.0144266 32.15 -0.00580588 32.4531 0.0574125 33.025C0.166608 33.9937 0.347642 34.75 0.649367 35.4844C0.922355 36.1437 1.25281 36.7375 1.38787 36.8062C1.48845 36.8594 1.60052 36.8219 1.67236 36.7156C1.69822 36.675 2.09764 35.5156 2.56029 34.1406C3.02006 32.7656 3.43672 31.5562 3.48557 31.4531C3.61488 31.1844 4.00856 30.7625 4.27293 30.6156C4.68672 30.3812 5.20109 30.3125 5.62063 30.4312C5.89649 30.5125 9.04879 31.7656 9.29592 31.8937C9.80741 32.1562 10.1982 32.6844 10.3275 33.2812C10.3907 33.5625 10.385 34 10.3218 34.2687C10.2902 34.3875 9.88213 35.6312 9.41373 37.0312C8.94247 38.4312 8.55167 39.625 8.54305 39.6812C8.52868 39.7687 8.54305 39.7969 8.635 39.8937C8.69822 39.9594 8.76431 40 8.79017 39.9906C8.81603 39.9812 8.99132 39.925 9.18098 39.8656C10.8534 39.3344 12.2557 38.2219 13.204 36.6719C13.8074 35.6812 14.1551 34.6781 14.3448 33.3594C14.3936 33.0187 14.3907 31.75 14.3419 31.3906C14.2557 30.7406 14.066 29.9594 13.8821 29.4719C13.8333 29.3437 13.793 29.2187 13.793 29.1937C13.793 29.1375 13.8706 29.0312 14.4339 28.3344C16.7298 25.4875 20.112 21.7375 22.6436 19.2312C24.3534 17.5406 25.816 16.2594 26.862 15.5344L27.0114 15.4312L27.7672 15.425C28.6206 15.4187 28.8821 15.3844 29.5833 15.1875C30.4166 14.9562 31.0862 14.6312 31.8103 14.1062C33.5172 12.8719 34.6724 10.8281 34.9137 8.625C34.931 8.4625 34.9568 8.24375 34.9741 8.1375C35.0143 7.84999 35.0057 7.54687 34.9425 6.97499C34.8333 6.00624 34.6522 5.25 34.3505 4.51562C34.0775 3.85625 33.7471 3.2625 33.612 3.19374C33.5114 3.14062 33.3994 3.17812 33.3304 3.28437C33.3017 3.325 32.908 4.4625 32.4568 5.8125C32.0057 7.16249 31.589 8.37187 31.5316 8.5C31.3936 8.8125 31.0258 9.21875 30.727 9.38437C30.3132 9.61875 29.7988 9.6875 29.3793 9.56875C29.1034 9.4875 25.9511 8.23437 25.704 8.10625C25.1925 7.84375 24.8017 7.31562 24.6724 6.71875C24.6091 6.4375 24.6149 6 24.681 5.73125C24.7097 5.6125 25.1178 4.36875 25.589 2.96875C26.0574 1.56874 26.4482 0.374996 26.4568 0.318745C26.4712 0.231247 26.4568 0.203121 26.3678 0.109371C26.2643 0.00312042 26.2298 -0.0156288 26.204 0.0124969Z" fill="#D6A62B"/>
</svg>
