<svg width="24" height="40" viewBox="0 0 24 40" fill="none" xmlns="http://www.w3.org/2000/svg">
<path d="M5.05795 0.036953C4.55681 0.168571 4.18776 0.538361 4.07899 1.01156C4.04791 1.13691 4.03626 2.34029 4.03626 4.74704V8.29763H2.01619H0L0.015539 8.44492C0.0271933 8.52953 0.0543865 8.76457 0.0738103 8.9714C0.400129 11.889 1.92684 14.5997 4.32761 16.5238C5.44254 17.4201 6.53415 18.0218 7.93655 18.5201C8.13079 18.589 8.29395 18.6486 8.30172 18.6517C8.30949 18.6611 8.22402 18.8805 7.18291 21.5536C6.31272 23.7848 5.74943 25.2327 5.46585 25.9566C5.34153 26.2825 4.85206 27.5391 4.37812 28.7456C3.27096 31.5911 3.1855 31.8136 3.19715 31.823C3.20492 31.8293 5.20557 31.0364 7.64519 30.0618C10.0848 29.0872 12.0932 28.2912 12.1088 28.2912C12.1243 28.2912 12.1321 28.3947 12.1282 28.5169C12.1204 28.6422 12.0816 29.8581 12.0388 31.2213C11.965 33.5936 11.9262 34.7563 11.8446 37.2382C11.7747 39.3316 11.763 40.0618 11.8019 39.996C11.8213 39.9615 11.9068 39.786 11.9922 39.6042C12.0777 39.4225 12.3962 38.7518 12.6993 38.1157C13.0023 37.4764 13.4063 36.6303 13.5927 36.2354C13.7792 35.8374 14.1793 34.9976 14.4824 34.3614C15.1583 32.9449 15.8381 31.5096 17.0113 29.0433C17.5086 27.9998 18.1534 26.6397 18.4487 26.0192C18.7439 25.3987 19.3033 24.2204 19.6918 23.4025C20.0803 22.5846 20.4066 21.9014 20.4183 21.8858C20.4338 21.8701 20.3911 21.867 20.3289 21.8795C20.2318 21.8983 17.3648 22.6253 14.5639 23.3367C14.0395 23.4715 13.6083 23.5717 13.6005 23.5592C13.5927 23.5404 15.6089 19.0779 15.8109 18.6705C15.8381 18.6078 15.9391 18.5577 16.2344 18.4543C16.7355 18.2788 17.4309 17.9591 17.9864 17.652C21.2846 15.8281 23.5261 12.5533 23.9262 8.9714C23.9456 8.76457 23.9728 8.52953 23.9845 8.44806L24 8.29763L21.7896 8.29136L19.5753 8.28196L19.5675 4.66243C19.5558 1.05544 19.5558 1.0429 19.4743 0.848606C19.2334 0.281387 18.6934 -0.0476608 18.0913 0.00561523C17.5202 0.0526199 17.0424 0.447479 16.8987 0.989624C16.8676 1.10871 16.8559 2.18987 16.8559 4.72511V8.29763H11.8058H6.75558V4.79405C6.75558 2.61293 6.74005 1.21212 6.71674 1.07424C6.63904 0.651176 6.32049 0.259453 5.92036 0.0996284C5.66397 -0.000652313 5.2988 -0.0257225 5.05795 0.036953Z" fill="#D6A62B"/>
</svg>
