<svg width="28" height="40" viewBox="0 0 28 40" fill="none" xmlns="http://www.w3.org/2000/svg">
<path d="M3.23312 0.0381851C2.88312 0.0795631 2.75558 0.120941 2.58947 0.24189C2.50346 0.305546 2.39371 0.423313 2.34329 0.502884C2.17719 0.77343 2.16532 0.865734 2.16532 1.96383V2.96006H2.06447C1.88354 2.96006 1.14795 3.08419 0.94922 3.15104C0.442016 3.31336 0.109813 3.70485 0.0326944 4.23321C0.0119317 4.36689 6.7284e-05 5.70688 6.7284e-05 8.08767C6.7284e-05 12.0949 -0.00883101 11.9071 0.178033 12.2222C0.415321 12.6201 1.08269 13.0943 1.75007 13.3362C1.90134 13.3935 7.37973 15.8953 9.93651 17.0761C10.1738 17.1843 10.4882 17.3212 10.6335 17.3785C10.7818 17.4358 11.0399 17.5503 11.209 17.6363C11.5441 17.805 12.3628 18.2729 12.4992 18.3747C12.7246 18.5434 12.784 19.1195 12.7098 20.4213C12.6802 20.921 12.6653 21.6085 12.6683 22.07L12.6772 22.8626L12.5437 22.9358C12.3628 23.0344 12.17 23.2636 12.1433 23.41C12.1136 23.5914 12.1463 24.2885 12.2204 25.0046L12.2886 25.6412L12.2234 26.2141C11.8081 29.8235 11.7043 32.373 11.7725 37.4146C11.7903 38.6751 11.814 39.8527 11.8229 40.0278L11.8437 40.3492L11.9802 40.4225C12.6831 40.7885 13.389 40.8394 14.0801 40.572C14.1899 40.5275 14.3441 40.4606 14.4183 40.4225L14.5547 40.3492L14.5755 40.031C14.5874 39.8559 14.6081 38.5223 14.6229 37.0677C14.6704 31.9624 14.5785 29.7376 14.1869 26.3383C14.1157 25.7208 14.1128 25.6412 14.1454 25.3038C14.1662 25.1033 14.2018 24.7436 14.2225 24.5081C14.2789 23.9511 14.2789 23.4546 14.2285 23.3209C14.1454 23.1108 13.7954 22.8498 13.5907 22.8466H13.481V21.8854C13.481 20.6091 13.4217 18.6421 13.3742 18.4511C13.3327 18.2729 13.1429 18.031 12.87 17.8113C12.5259 17.5312 12.167 17.3594 9.09117 15.978C8.53651 15.7297 7.70896 15.3573 7.25218 15.1505C6.79541 14.9436 5.34795 14.2943 4.03397 13.7054C0.975915 12.3336 0.875067 12.2795 0.741593 11.9962C0.679304 11.8657 0.679304 11.8626 0.682271 8.3232C0.685237 4.75202 0.691169 4.5324 0.78905 4.18865C0.875067 3.89264 1.18651 3.7526 1.84498 3.70485L2.16236 3.68258L2.17125 5.19125L2.18015 6.69994L2.2632 6.87818C2.36998 7.11371 2.58354 7.32378 2.7971 7.4129L2.96913 7.47974H15.0827H27.1962L27.3683 7.40972C27.5848 7.32378 27.8221 7.08825 27.914 6.86544L27.9852 6.69994V3.77169V0.843452L27.9051 0.662029C27.7509 0.308731 27.4721 0.105026 27.0657 0.0541C26.7573 0.0159073 3.53863 -7.62939e-06 3.23312 0.0381851Z" fill="#D6A62B"/>
</svg>
