<svg width="24" height="40" viewBox="0 0 24 40" fill="none" xmlns="http://www.w3.org/2000/svg">
<path d="M11.9037 39.9141C12.3281 39.6356 13.1243 38.2194 13.61 36.8891C14.3712 34.806 14.6687 33.0219 14.6687 30.5263C14.6687 27.7006 14.45 26.1435 13.7281 23.8094C13.575 23.3075 13.4262 22.7506 13.4043 22.5719C13.3518 22.2006 13.4 21.5785 13.5137 21.1006C13.8418 19.7153 14.94 18.4125 16.6156 17.426C17.4818 16.9138 18.2956 16.5735 20.5312 15.7828C21.2662 15.525 21.9487 15.2775 22.0493 15.2294C22.2375 15.1435 22.4125 14.9235 22.4125 14.7722C22.4125 14.7275 22.4518 14.6416 22.4956 14.5831C22.5612 14.4972 22.5831 14.3769 22.6093 13.9953C22.6356 13.5828 22.6531 13.5038 22.7275 13.4385C22.8018 13.3766 22.8106 13.3388 22.7843 13.1806C22.7668 13.081 22.745 12.4038 22.7362 11.675C22.7187 10.3928 22.7187 10.3447 22.8106 10.1556C22.8893 9.99064 22.8937 9.94252 22.85 9.83939C22.7887 9.69158 22.8281 9.06939 22.92 8.77377C22.9681 8.62252 22.9725 8.52627 22.9375 8.36127C22.9156 8.24783 22.8937 8.08627 22.8937 8.0072C22.8937 7.89377 22.8762 7.85939 22.8237 7.85939C22.7625 7.85939 22.7581 7.82502 22.78 7.62908C22.8062 7.43658 22.9943 5.46689 23.3312 1.88845C23.3575 1.63752 23.3925 1.22502 23.4187 0.977516C23.4406 0.726578 23.48 0.296891 23.5062 0.0218906C23.5325 -0.253109 23.5718 -0.675922 23.5937 -0.923422C23.62 -1.16748 23.6593 -1.58686 23.6812 -1.85155C23.7075 -2.11623 23.7468 -2.54248 23.7731 -2.79686C23.795 -3.05123 23.8037 -3.31592 23.7906 -3.38467C23.7643 -3.50155 23.6331 -3.6528 23.5587 -3.65623C23.5412 -3.65967 23.4406 -3.67342 23.3312 -3.69061C23.2218 -3.71123 22.7975 -3.74905 22.3906 -3.78342C21.7825 -3.82811 21.0168 -3.84186 18.1906 -3.84873C14.94 -3.85561 8.27684 -3.91061 5.69996 -3.94842C5.06121 -3.95873 3.67434 -3.97248 2.61559 -3.9828C0.729961 -4.00342 0.686211 -4.00342 0.546211 -3.93467C0.467461 -3.89342 0.366835 -3.81436 0.314335 -3.75248C0.231211 -3.64592 0.226835 -3.5978 0.244335 -2.81405C0.25746 -2.3603 0.296835 -1.3703 0.33621 -0.614047C0.401836 0.743766 0.445585 1.63064 0.541836 3.8547C0.568085 4.48033 0.62496 5.7247 0.664335 6.62189C0.725586 8.05189 0.725586 8.2547 0.668711 8.26845C0.633711 8.27533 0.563711 8.30283 0.511211 8.32689L0.419336 8.37502L0.38871 11.1388C0.37121 12.6581 0.37121 14.1844 0.38871 14.5281L0.419336 15.1572L0.541836 15.1916C0.646835 15.226 0.664335 15.25 0.690586 15.4425C0.72121 15.6866 0.856836 15.9203 1.01871 16.0131C1.07996 16.0475 1.67059 16.1816 2.33121 16.3122C4.17309 16.6731 5.57746 17.0719 6.28621 17.4294C6.76746 17.6735 8.25496 18.6428 8.68371 18.99C8.91559 19.1825 9.18684 19.4335 9.28746 19.5469C9.70746 20.0316 9.94371 20.585 9.94371 21.08C9.94371 21.8156 9.59371 23.7441 9.02496 26.1125C8.91559 26.5663 8.78434 27.2366 8.69684 27.7797C8.62684 28.2163 8.53934 29.0688 8.49559 29.8113C8.43871 30.6603 8.47809 31.7775 8.58746 32.551C8.60934 32.7056 8.64871 33.0116 8.67496 33.2281C8.96371 35.6035 9.25246 36.9647 9.62434 37.7485C9.88246 38.2916 10.2281 38.7694 10.845 39.4363C11.3393 39.9725 11.6237 40.0997 11.9037 39.9141ZM11.1468 37.4838C11.0375 37.446 11.0331 37.4356 11.0593 37.2535C11.1381 36.7 11.4793 36.3803 11.9168 36.4491C12.1268 36.48 12.1531 36.535 12.07 36.7894C11.9562 37.1469 11.7768 37.3738 11.5406 37.47C11.3831 37.5353 11.2956 37.5388 11.1468 37.4838Z" fill="#D6A62B"/>
</svg>
