<svg width="76" height="74" viewBox="0 0 76 74" fill="none" xmlns="http://www.w3.org/2000/svg">
<path d="M0 70.4532C0 72 1.26562 73.3008 2.8125 73.3008H72.7734C74.3202 73.3008 75.621 72 75.621 70.4532C75.621 68.9064 74.3202 67.6407 72.7734 67.6407H2.8125C1.26562 67.6407 0 68.9064 0 70.4532ZM6.15234 30.1992C6.15234 31.6407 6.96093 32.4492 8.40234 32.4492H17.4023C18.8437 32.4492 19.6875 31.6407 19.6875 30.1992V29.3555C19.6875 27.9844 18.8437 27.1406 17.4023 27.1406H8.40234C6.96093 27.1406 6.15234 27.9844 6.15234 29.3555V30.1992ZM10.2656 60.2577H15.5742V30.5508H10.2656V60.2577ZM6.15234 62.2968C6.15234 63.7383 6.96093 64.5468 8.40234 64.5468H17.4023C18.8437 64.5468 19.6875 63.7383 19.6875 62.2968V61.4532C19.6875 60.0819 18.8437 59.2383 17.4023 59.2383H8.40234C6.96093 59.2383 6.15234 60.0819 6.15234 61.4532V62.2968ZM22.8516 30.1992C22.8516 31.6407 23.6953 32.4492 25.1016 32.4492H34.1367C35.5431 32.4492 36.3867 31.6407 36.3867 30.1992V29.3555C36.3867 27.9844 35.5431 27.1406 34.1367 27.1406H25.1016C23.6953 27.1406 22.8516 27.9844 22.8516 29.3555V30.1992ZM27 60.2577H32.3085V30.5508H27V60.2577ZM22.8516 62.2968C22.8516 63.7383 23.6953 64.5468 25.1016 64.5468H34.1367C35.5431 64.5468 36.3867 63.7383 36.3867 62.2968V61.4532C36.3867 60.0819 35.5431 59.2383 34.1367 59.2383H25.1016C23.6953 59.2383 22.8516 60.0819 22.8516 61.4532V62.2968ZM39.5859 30.1992C39.5859 31.6407 40.4298 32.4492 41.8359 32.4492H50.871C52.2774 32.4492 53.121 31.6407 53.121 30.1992V29.3555C53.121 27.9844 52.2774 27.1406 50.871 27.1406H41.8359C40.4298 27.1406 39.5859 27.9844 39.5859 29.3555V30.1992ZM43.7343 60.2577H49.0431V30.5508H43.7343V60.2577ZM39.5859 62.2968C39.5859 63.7383 40.4298 64.5468 41.8359 64.5468H50.871C52.2774 64.5468 53.121 63.7383 53.121 62.2968V61.4532C53.121 60.0819 52.2774 59.2383 50.871 59.2383H41.8359C40.4298 59.2383 39.5859 60.0819 39.5859 61.4532V62.2968ZM56.3202 30.1992C56.3202 31.6407 57.129 32.4492 58.5702 32.4492H67.5702C69.0117 32.4492 69.8202 31.6407 69.8202 30.1992V29.3555C69.8202 27.9844 69.0117 27.1406 67.5702 27.1406H58.5702C57.129 27.1406 56.3202 27.9844 56.3202 29.3555V30.1992ZM60.4335 60.2577H65.7423V30.5508H60.4335V60.2577ZM56.3202 62.2968C56.3202 63.7383 57.129 64.5468 58.5702 64.5468H67.5702C69.0117 64.5468 69.8202 63.7383 69.8202 62.2968V61.4532C69.8202 60.0819 69.0117 59.2383 67.5702 59.2383H58.5702C57.129 59.2383 56.3202 60.0819 56.3202 61.4532V62.2968ZM4.64064 24.082H70.9452C72.879 24.082 74.004 22.6758 74.004 21.2344C74.004 20.1797 73.4415 19.2656 72.1407 18.5273L42.1173 1.23047C40.7109 0.421875 39.2343 0 37.7931 0C36.3516 0 34.875 0.421875 33.4686 1.23047L3.44532 18.5273C2.14453 19.2656 1.58203 20.1797 1.58203 21.2344C1.58203 22.6758 2.67187 24.082 4.64064 24.082ZM15.1875 18.4219L36.4218 6.50391C36.8436 6.25782 37.3359 6.11718 37.7931 6.11718C38.25 6.11718 38.7423 6.25782 39.1641 6.50391L60.3984 18.4219H15.1875Z" fill="#D6A62B"/>
</svg>
