<svg width="245" height="132" viewBox="0 0 245 132" fill="none" xmlns="http://www.w3.org/2000/svg">
<path d="M52.2165 71.3696V57.9086C52.2165 57.6275 52.3139 57.386 52.5085 57.1842C52.7031 56.9823 52.941 56.8814 53.2221 56.8814H56.4008C56.6531 56.8814 56.9198 56.9823 57.2009 57.1842C57.482 57.386 57.7127 57.6275 57.8929 57.9086L64.4234 67.953V57.8869C64.4234 57.6058 64.5207 57.368 64.7153 57.1733C64.9172 56.9787 65.1586 56.8814 65.4398 56.8814H67.2994C67.5805 56.8814 67.8184 56.9787 68.013 57.1733C68.2149 57.368 68.3158 57.613 68.3158 57.9086V71.3696C68.3158 71.6508 68.2149 71.8922 68.013 72.0941C67.8184 72.2887 67.5805 72.386 67.2994 72.386H63.7098C63.4287 72.386 63.1404 72.2887 62.8448 72.0941C62.5493 71.8922 62.3151 71.6508 62.1421 71.3696L56.163 62.0929V71.3696C56.163 71.6508 56.062 71.8922 55.8602 72.0941C55.6656 72.2887 55.4277 72.386 55.1466 72.386H53.2437C52.9626 72.386 52.7211 72.2887 52.5193 72.0941C52.3175 71.8922 52.2165 71.6508 52.2165 71.3696ZM73.6332 71.348V57.8869C73.6332 57.6058 73.7341 57.368 73.9359 57.1733C74.1377 56.9787 74.3792 56.8814 74.6603 56.8814H87.1267C87.4078 56.8814 87.6457 56.9823 87.8403 57.1842C88.0421 57.386 88.143 57.6275 88.143 57.9086V58.9249C88.143 59.206 88.0421 59.4475 87.8403 59.6493C87.6457 59.8439 87.4078 59.9412 87.1267 59.9412H77.7093V63.0876H85.8184C86.0995 63.0876 86.3374 63.1885 86.532 63.3903C86.7338 63.5849 86.8348 63.8228 86.8348 64.1039V65.1202C86.8348 65.4014 86.7338 65.6428 86.532 65.8447C86.3374 66.0393 86.0995 66.1366 85.8184 66.1366H77.7093V69.3262H87.1051C87.379 69.3262 87.6132 69.4235 87.8078 69.6181C88.0025 69.8127 88.0998 70.0506 88.0998 70.3317V71.3696C88.0998 71.6508 87.9989 71.8922 87.797 72.0941C87.5952 72.2887 87.3537 72.386 87.0726 72.386H74.6603C74.3792 72.386 74.1377 72.2887 73.9359 72.0941C73.7341 71.8922 73.6332 71.6436 73.6332 71.348ZM91.0709 57.7896C91.0349 57.7031 91.0169 57.6058 91.0169 57.4977C91.0169 57.3824 91.0781 57.2526 91.2007 57.1085C91.3304 56.9571 91.5214 56.8814 91.7737 56.8814H94.1416C94.4227 56.8814 94.6822 56.9787 94.92 57.1733C95.1579 57.368 95.3273 57.613 95.4282 57.9086L98.2826 66.4718L100.921 57.9086C101.13 57.2238 101.559 56.8814 102.207 56.8814H104.197C104.846 56.8814 105.274 57.2238 105.483 57.9086L108.122 66.4718L110.976 57.9086C111.077 57.613 111.246 57.368 111.484 57.1733C111.722 56.9787 111.982 56.8814 112.263 56.8814H114.631C114.876 56.8814 115.059 56.9571 115.182 57.1085C115.312 57.2526 115.377 57.3824 115.377 57.4977C115.377 57.6058 115.362 57.7031 115.333 57.7896L110.511 71.2832C110.244 72.0184 109.725 72.386 108.954 72.386H107.386C106.586 72.386 106.071 72.0184 105.84 71.2832L103.202 62.9578L100.564 71.2832C100.326 72.0184 99.8107 72.386 99.0178 72.386H97.4393C96.6752 72.386 96.1598 72.0184 95.8931 71.2832L91.0709 57.7896ZM120.629 68.8829C121.602 68.8829 122.089 69.373 122.089 70.3533V71.0345C122.089 71.4886 121.963 71.8454 121.71 72.1049C121.465 72.3644 121.105 72.4941 120.629 72.4941H119.299C118.823 72.4941 118.459 72.3644 118.207 72.1049C117.962 71.8454 117.84 71.4886 117.84 71.0345V70.3533C117.84 69.8776 117.966 69.5136 118.218 69.2613C118.47 69.009 118.831 68.8829 119.299 68.8829H120.629ZM137.838 70.5587C136.504 69.2829 135.837 67.3115 135.837 64.6445C135.837 61.9703 136.504 59.9953 137.838 58.7195C139.178 57.4364 141.186 56.7949 143.86 56.7949H146.271C147.907 56.7949 149.353 57.2202 150.607 58.0708C151.868 58.9213 152.499 60.0854 152.499 61.5631C152.499 61.9883 152.373 62.2947 152.12 62.4821C151.868 62.6623 151.623 62.7524 151.385 62.7524H150.099C149.435 62.7524 148.92 62.356 148.552 61.5631C148.019 60.4242 147.132 59.8548 145.893 59.8548H143.968C142.39 59.8548 141.319 60.1935 140.757 60.8711C140.195 61.5486 139.914 62.8029 139.914 64.6337C139.914 66.4646 140.195 67.7224 140.757 68.4071C141.319 69.0847 142.39 69.4235 143.968 69.4235H146.12C147.359 69.4235 148.242 68.854 148.769 67.7152C149.136 66.9151 149.655 66.515 150.326 66.515H151.612C151.951 66.515 152.218 66.6412 152.412 66.8934C152.614 67.1457 152.715 67.4196 152.715 67.7152C152.715 69.1928 152.088 70.3569 150.834 71.2075C149.58 72.0508 148.134 72.4725 146.498 72.4725H143.86C141.186 72.4725 139.178 71.8346 137.838 70.5587ZM155.492 58.9249V57.9086C155.492 57.613 155.589 57.368 155.784 57.1733C155.978 56.9787 156.223 56.8814 156.519 56.8814H170.239C170.535 56.8814 170.78 56.9787 170.975 57.1733C171.169 57.368 171.267 57.613 171.267 57.9086V58.9249C171.267 59.2204 171.169 59.4655 170.975 59.6601C170.78 59.8475 170.535 59.9412 170.239 59.9412H165.417V71.3913C165.417 71.6724 165.316 71.9103 165.114 72.1049C164.92 72.2923 164.682 72.386 164.401 72.386H162.357C162.076 72.386 161.835 72.2923 161.633 72.1049C161.438 71.9103 161.341 71.6724 161.341 71.3913V59.9412H156.519C156.223 59.9412 155.978 59.8475 155.784 59.6601C155.589 59.4655 155.492 59.2204 155.492 58.9249ZM175.254 71.3696V57.9086C175.254 57.6275 175.351 57.386 175.546 57.1842C175.741 56.9823 175.978 56.8814 176.26 56.8814H184.509C188.87 56.8814 191.05 58.8925 191.05 62.9146C191.05 66.9295 188.87 68.9369 184.509 68.9369H179.33V71.3696C179.33 71.6508 179.229 71.8922 179.027 72.0941C178.833 72.2887 178.595 72.386 178.314 72.386H176.281C176 72.386 175.759 72.2887 175.557 72.0941C175.355 71.8922 175.254 71.6508 175.254 71.3696ZM179.33 65.8771H183.277C184.488 65.8771 185.407 65.6753 186.034 65.2716C186.661 64.8608 186.974 64.0751 186.974 62.9146C186.974 61.7469 186.661 60.9612 186.034 60.5575C185.407 60.1467 184.488 59.9412 183.277 59.9412H179.33V65.8771ZM209.569 70.7858C208.099 72.076 205.937 72.7212 203.082 72.7212C200.235 72.7212 198.073 72.076 196.595 70.7858C195.117 69.4883 194.378 67.4376 194.378 64.6337C194.378 61.8298 195.117 59.7827 196.595 58.4924C198.073 57.2022 200.235 56.5571 203.082 56.5571C205.937 56.5571 208.099 57.2022 209.569 58.4924C211.047 59.7827 211.786 61.8298 211.786 64.6337C211.786 67.4376 211.047 69.4883 209.569 70.7858ZM206.618 60.7738C205.89 59.9088 204.711 59.4763 203.082 59.4763C201.46 59.4763 200.282 59.9088 199.547 60.7738C198.819 61.6388 198.455 62.929 198.455 64.6445C198.455 66.3528 198.819 67.6395 199.547 68.5044C200.282 69.3622 201.46 69.7911 203.082 69.7911C204.711 69.7911 205.89 69.3622 206.618 68.5044C207.346 67.6395 207.71 66.3528 207.71 64.6445C207.71 62.929 207.346 61.6388 206.618 60.7738ZM216.228 71.3696V57.9086C216.228 57.613 216.325 57.368 216.52 57.1733C216.714 56.9787 216.959 56.8814 217.255 56.8814H219.158C219.439 56.8814 219.677 56.9787 219.871 57.1733C220.073 57.368 220.174 57.6058 220.174 57.8869V68.7099L226.326 57.9086C226.492 57.6275 226.719 57.386 227.007 57.1842C227.296 56.9823 227.562 56.8814 227.807 56.8814H230.997C231.278 56.8814 231.516 56.9823 231.711 57.1842C231.905 57.386 232.002 57.6275 232.002 57.9086V71.3696C232.002 71.6508 231.902 71.8922 231.7 72.0941C231.498 72.2887 231.256 72.386 230.975 72.386H229.072C228.791 72.386 228.55 72.2887 228.348 72.0941C228.153 71.8922 228.056 71.6508 228.056 71.3696V61.336L222.412 71.3696C222.246 71.6508 222.012 71.8922 221.709 72.0941C221.407 72.2887 221.115 72.386 220.834 72.386H217.255C216.974 72.386 216.732 72.2887 216.53 72.0941C216.328 71.8922 216.228 71.6508 216.228 71.3696ZM220.488 52.4593C220.488 52.0917 220.686 51.9079 221.082 51.9079H221.969C222.322 51.9079 222.571 52.0917 222.715 52.4593C222.924 52.971 223.389 53.2269 224.11 53.2269C224.838 53.2269 225.303 52.971 225.504 52.4593C225.656 52.0917 225.908 51.9079 226.261 51.9079H227.148C227.544 51.9079 227.742 52.0917 227.742 52.4593C227.742 53.4468 227.411 54.2289 226.748 54.8055C226.085 55.3821 225.205 55.6705 224.11 55.6705C223.021 55.6705 222.145 55.3821 221.482 54.8055C220.819 54.2289 220.488 53.4468 220.488 52.4593Z" fill="#D6A62B"/>
<path d="M104.417 34.8845V39.8052H114.258V34.8845H104.417ZM114.258 10.2005C114.258 7.48282 112.055 5.27975 109.338 5.27975C106.62 5.27975 104.417 7.48282 104.417 10.2005H114.258ZM114.258 34.8845V10.2005H104.417V34.8845H114.258Z" fill="#D6A62B"/>
<path d="M49.1069 118.082V123.003H58.9483V118.082H49.1069ZM58.9483 93.398C58.9483 90.6803 56.7452 88.4773 54.0276 88.4773C51.31 88.4773 49.1069 90.6803 49.1069 93.398H58.9483ZM58.9483 118.082V93.398H49.1069V118.082H58.9483Z" fill="#D6A62B"/>
<path d="M10.9199 34.8845L31.9365 10.1998" stroke="#D6A62B" stroke-width="9.84142" stroke-linecap="round"/>
<path d="M37.7585 5.27997L32.8378 5.27997V15.1214L37.7585 15.1214V5.27997ZM109.333 15.1214C112.05 15.1214 114.253 12.9183 114.253 10.2007C114.253 7.48305 112.05 5.27997 109.333 5.27997V15.1214ZM37.7585 15.1214L109.333 15.1214V5.27997L37.7585 5.27997V15.1214Z" fill="#D6A62B"/>
<path d="M10.9199 121.737H54.027" stroke="#D6A62B" stroke-width="9.84142" stroke-linecap="round"/>
<path d="M10.9199 116.256L10.9199 38.5465" stroke="#D6A62B" stroke-width="9.84142" stroke-linecap="square"/>
</svg>
