<svg width="203" height="115" viewBox="0 0 203 115" fill="none" xmlns="http://www.w3.org/2000/svg">
<g filter="url(#filter0_d_64_404)">
<path d="M45.5135 55.1413V43.9238C45.5135 43.6895 45.5976 43.4883 45.7658 43.3201C45.934 43.1519 46.1412 43.0678 46.3875 43.0678H48.0634C48.2977 43.0678 48.4959 43.1519 48.6581 43.3201C48.8263 43.4883 48.9103 43.6895 48.9103 43.9238V47.9783H55.1093V43.9238C55.1093 43.6895 55.1934 43.4883 55.3616 43.3201C55.5298 43.1519 55.731 43.0678 55.9652 43.0678H57.6411C57.8874 43.0678 58.0916 43.1519 58.2538 43.3201C58.422 43.4883 58.5061 43.6895 58.5061 43.9238V55.1413C58.5061 55.3756 58.419 55.5768 58.2448 55.745C58.0766 55.9072 57.8754 55.9883 57.6411 55.9883H55.9652C55.731 55.9883 55.5298 55.9102 55.3616 55.754C55.1934 55.5918 55.1093 55.3936 55.1093 55.1594V50.5282H48.9103V55.1594C48.9103 55.3936 48.8263 55.5918 48.6581 55.754C48.4959 55.9102 48.2977 55.9883 48.0634 55.9883H46.3875C46.1533 55.9883 45.949 55.9072 45.7748 55.745C45.6006 55.5768 45.5135 55.3756 45.5135 55.1413ZM62.9463 55.1233V43.9238C62.9463 43.6775 63.0274 43.4733 63.1895 43.3111C63.3517 43.1489 63.5559 43.0678 63.8022 43.0678H65.4961C65.7304 43.0678 65.9286 43.1519 66.0908 43.3201C66.259 43.4883 66.3431 43.6895 66.3431 43.9238V47.4647H70.7941C72.2116 47.4647 73.383 47.8402 74.308 48.591C75.239 49.3418 75.7046 50.387 75.7046 51.7265C75.7046 53.066 75.239 54.1112 74.308 54.862C73.3769 55.6129 72.2056 55.9883 70.7941 55.9883H63.7572C63.5349 55.9883 63.3427 55.9042 63.1805 55.736C63.0244 55.5618 62.9463 55.3576 62.9463 55.1233ZM66.3431 53.4384H70.7941C71.8032 53.4384 72.3077 52.8678 72.3077 51.7265C72.3077 50.5792 71.8032 50.0056 70.7941 50.0056H66.3431V53.4384ZM79.2077 55.1413V43.9238C79.2077 43.6895 79.2918 43.4883 79.46 43.3201C79.6281 43.1519 79.8354 43.0678 80.0817 43.0678H81.7936C82.0278 43.0678 82.2261 43.1519 82.3882 43.3201C82.5564 43.4883 82.6405 43.6895 82.6405 43.9238V47.9603H84.3254C84.83 44.5184 87.0795 42.7975 91.074 42.7975C95.6391 42.7975 97.9216 45.044 97.9216 49.5371C97.9216 54.0241 95.6391 56.2676 91.074 56.2676C86.8693 56.2676 84.6017 54.3545 84.2713 50.5282H82.6405V55.1594C82.6405 55.3936 82.5564 55.5918 82.3882 55.754C82.2261 55.9102 82.0278 55.9883 81.7936 55.9883H80.0817C79.8474 55.9883 79.6432 55.9072 79.469 55.745C79.2948 55.5768 79.2077 55.3756 79.2077 55.1413ZM91.074 45.2302C88.7734 45.2302 87.6231 46.6628 87.6231 49.528C87.6231 52.3933 88.7734 53.8259 91.074 53.8259C93.3745 53.8259 94.5248 52.3933 94.5248 49.528C94.5248 46.6628 93.3745 45.2302 91.074 45.2302ZM103.389 53.069C104.2 53.069 104.605 53.4775 104.605 54.2944V54.862C104.605 55.2404 104.5 55.5378 104.29 55.754C104.086 55.9703 103.785 56.0784 103.389 56.0784H102.281C101.884 56.0784 101.581 55.9703 101.371 55.754C101.166 55.5378 101.064 55.2404 101.064 54.862V54.2944C101.064 53.8979 101.169 53.5946 101.38 53.3844C101.59 53.1741 101.89 53.069 102.281 53.069H103.389ZM117.729 54.4656C116.618 53.4024 116.063 51.7595 116.063 49.5371C116.063 47.3086 116.618 45.6627 117.729 44.5995C118.847 43.5303 120.52 42.9957 122.748 42.9957H124.757C126.121 42.9957 127.325 43.3501 128.37 44.0589C129.422 44.7677 129.947 45.7378 129.947 46.9692C129.947 47.3236 129.842 47.5789 129.632 47.735C129.422 47.8852 129.217 47.9603 129.019 47.9603H127.947C127.394 47.9603 126.965 47.6299 126.658 46.9692C126.214 46.0201 125.475 45.5456 124.442 45.5456H122.838C121.523 45.5456 120.631 45.8279 120.162 46.3925C119.694 46.9572 119.459 48.0023 119.459 49.528C119.459 51.0538 119.694 52.1019 120.162 52.6726C120.631 53.2372 121.523 53.5195 122.838 53.5195H124.631C125.664 53.5195 126.4 53.045 126.839 52.0959C127.145 51.4292 127.577 51.0958 128.136 51.0958H129.208C129.491 51.0958 129.713 51.2009 129.875 51.4112C130.043 51.6214 130.127 51.8496 130.127 52.0959C130.127 53.3273 129.605 54.2974 128.56 55.0062C127.514 55.709 126.31 56.0604 124.946 56.0604H122.748C120.52 56.0604 118.847 55.5288 117.729 54.4656ZM132.441 44.7707V43.9238C132.441 43.6775 132.522 43.4733 132.684 43.3111C132.847 43.1489 133.051 43.0678 133.297 43.0678H144.731C144.977 43.0678 145.181 43.1489 145.344 43.3111C145.506 43.4733 145.587 43.6775 145.587 43.9238V44.7707C145.587 45.017 145.506 45.2212 145.344 45.3834C145.181 45.5396 144.977 45.6177 144.731 45.6177H140.712V55.1594C140.712 55.3936 140.628 55.5918 140.46 55.754C140.298 55.9102 140.1 55.9883 139.865 55.9883H138.162C137.928 55.9883 137.727 55.9102 137.559 55.754C137.397 55.5918 137.316 55.3936 137.316 55.1594V45.6177H133.297C133.051 45.6177 132.847 45.5396 132.684 45.3834C132.522 45.2212 132.441 45.017 132.441 44.7707ZM148.91 55.1413V43.9238C148.91 43.6895 148.991 43.4883 149.153 43.3201C149.315 43.1519 149.513 43.0678 149.748 43.0678H156.622C160.256 43.0678 162.073 44.7437 162.073 48.0954C162.073 51.4412 160.256 53.1141 156.622 53.1141H152.307V55.1413C152.307 55.3756 152.222 55.5768 152.054 55.745C151.892 55.9072 151.694 55.9883 151.46 55.9883H149.766C149.531 55.9883 149.33 55.9072 149.162 55.745C148.994 55.5768 148.91 55.3756 148.91 55.1413ZM152.307 50.5642H155.595C156.604 50.5642 157.37 50.396 157.893 50.0596C158.415 49.7173 158.677 49.0625 158.677 48.0954C158.677 47.1224 158.415 46.4676 157.893 46.1312C157.37 45.7889 156.604 45.6177 155.595 45.6177H152.307V50.5642ZM177.506 54.6548C176.281 55.73 174.479 56.2676 172.1 56.2676C169.727 56.2676 167.925 55.73 166.694 54.6548C165.462 53.5736 164.847 51.8647 164.847 49.528C164.847 47.1914 165.462 45.4855 166.694 44.4103C167.925 43.3351 169.727 42.7975 172.1 42.7975C174.479 42.7975 176.281 43.3351 177.506 44.4103C178.737 45.4855 179.353 47.1914 179.353 49.528C179.353 51.8647 178.737 53.5736 177.506 54.6548ZM175.046 46.3114C174.44 45.5906 173.457 45.2302 172.1 45.2302C170.748 45.2302 169.766 45.5906 169.154 46.3114C168.547 47.0323 168.244 48.1075 168.244 49.5371C168.244 50.9607 168.547 52.0329 169.154 52.7537C169.766 53.4685 170.748 53.8259 172.1 53.8259C173.457 53.8259 174.44 53.4685 175.046 52.7537C175.653 52.0329 175.956 50.9607 175.956 49.5371C175.956 48.1075 175.653 47.0323 175.046 46.3114ZM183.054 55.1413V43.9238C183.054 43.6775 183.135 43.4733 183.298 43.3111C183.46 43.1489 183.664 43.0678 183.91 43.0678H185.496C185.73 43.0678 185.929 43.1489 186.091 43.3111C186.259 43.4733 186.343 43.6715 186.343 43.9057V52.9249L191.47 43.9238C191.608 43.6895 191.797 43.4883 192.037 43.3201C192.278 43.1519 192.5 43.0678 192.704 43.0678H195.362C195.596 43.0678 195.795 43.1519 195.957 43.3201C196.119 43.4883 196.2 43.6895 196.2 43.9238V55.1413C196.2 55.3756 196.116 55.5768 195.948 55.745C195.78 55.9072 195.578 55.9883 195.344 55.9883H193.758C193.524 55.9883 193.323 55.9072 193.155 55.745C192.993 55.5768 192.911 55.3756 192.911 55.1413V46.78L188.208 55.1413C188.07 55.3756 187.875 55.5768 187.622 55.745C187.37 55.9072 187.127 55.9883 186.893 55.9883H183.91C183.676 55.9883 183.475 55.9072 183.307 55.745C183.138 55.5768 183.054 55.3756 183.054 55.1413ZM186.604 39.3827C186.604 39.0763 186.77 38.9232 187.1 38.9232H187.839C188.133 38.9232 188.34 39.0763 188.46 39.3827C188.635 39.8092 189.022 40.0224 189.623 40.0224C190.229 40.0224 190.617 39.8092 190.785 39.3827C190.911 39.0763 191.121 38.9232 191.416 38.9232H192.155C192.485 38.9232 192.65 39.0763 192.65 39.3827C192.65 40.2056 192.374 40.8573 191.821 41.3379C191.269 41.8184 190.536 42.0587 189.623 42.0587C188.716 42.0587 187.986 41.8184 187.433 41.3379C186.881 40.8573 186.604 40.2056 186.604 39.3827Z" fill="#D6A62B"/>
</g>
<g filter="url(#filter1_d_64_404)">
<path d="M89.0142 25.0706V29.1711H97.2153V25.0706H89.0142ZM97.2153 4.5005C97.2153 2.23581 95.3794 0.39991 93.1147 0.39991C90.8501 0.39991 89.0142 2.23581 89.0142 4.5005H97.2153ZM97.2153 25.0706V4.5005H89.0142V25.0706H97.2153Z" fill="#D6A62B"/>
<path d="M42.9224 94.4016V98.5022H51.1235V94.4016H42.9224ZM51.1235 73.8316C51.1235 71.5669 49.2876 69.731 47.0229 69.731C44.7583 69.731 42.9224 71.5669 42.9224 73.8316H51.1235ZM51.1235 94.4016V73.8316H42.9224V94.4016H51.1235Z" fill="#D6A62B"/>
<path d="M11.1001 25.0706L28.6139 4.49992" stroke="#D6A62B" stroke-width="8.20118" stroke-linecap="round"/>
<path d="M33.4653 0.400141L29.3647 0.400141V8.60132H33.4653V0.400141ZM93.1103 8.60132C95.375 8.60132 97.2109 6.76543 97.2109 4.50073C97.2109 2.23604 95.375 0.400141 93.1103 0.400141V8.60132ZM33.4653 8.60132L93.1103 8.60132V0.400141L33.4653 0.400141V8.60132Z" fill="#D6A62B"/>
<path d="M11.1001 97.4478H47.0226" stroke="#D6A62B" stroke-width="8.20118" stroke-linecap="round"/>
<path d="M11.1001 92.8796L11.1001 28.1221" stroke="#D6A62B" stroke-width="8.20118" stroke-linecap="square"/>
</g>
<defs>
<filter id="filter0_d_64_404" x="38.9137" y="38.9231" width="163.887" height="30.5445" filterUnits="userSpaceOnUse" color-interpolation-filters="sRGB">
<feFlood flood-opacity="0" result="BackgroundImageFix"/>
<feColorMatrix in="SourceAlpha" type="matrix" values="0 0 0 0 0 0 0 0 0 0 0 0 0 0 0 0 0 0 127 0" result="hardAlpha"/>
<feOffset dy="6.6"/>
<feGaussianBlur stdDeviation="3.3"/>
<feComposite in2="hardAlpha" operator="out"/>
<feColorMatrix type="matrix" values="0 0 0 0 0 0 0 0 0 0 0 0 0 0 0 0 0 0 0.25 0"/>
<feBlend mode="normal" in2="BackgroundImageFix" result="effect1_dropShadow_64_404"/>
<feBlend mode="normal" in="SourceGraphic" in2="effect1_dropShadow_64_404" result="shape"/>
</filter>
<filter id="filter1_d_64_404" x="0.399512" y="0.167725" width="103.416" height="114.581" filterUnits="userSpaceOnUse" color-interpolation-filters="sRGB">
<feFlood flood-opacity="0" result="BackgroundImageFix"/>
<feColorMatrix in="SourceAlpha" type="matrix" values="0 0 0 0 0 0 0 0 0 0 0 0 0 0 0 0 0 0 127 0" result="hardAlpha"/>
<feOffset dy="6.6"/>
<feGaussianBlur stdDeviation="3.3"/>
<feComposite in2="hardAlpha" operator="out"/>
<feColorMatrix type="matrix" values="0 0 0 0 0 0 0 0 0 0 0 0 0 0 0 0 0 0 0.25 0"/>
<feBlend mode="normal" in2="BackgroundImageFix" result="effect1_dropShadow_64_404"/>
<feBlend mode="normal" in="SourceGraphic" in2="effect1_dropShadow_64_404" result="shape"/>
</filter>
</defs>
</svg>
