<svg width="28" height="29" viewBox="0 0 28 29" fill="none" xmlns="http://www.w3.org/2000/svg">
<g clip-path="url(#clip0_64_373)">
<path d="M8.95312 19.7979C12.3398 23.1846 16.4531 25.7979 19.8164 25.7979C21.3281 25.7979 22.6523 25.2705 23.7188 24.0986C24.3398 23.4072 24.7266 22.5986 24.7266 21.8018C24.7266 21.2158 24.5039 20.6533 23.9531 20.2549L20.3555 17.7002C19.8164 17.3252 19.3477 17.1377 18.9258 17.1377C18.3984 17.1377 17.918 17.4424 17.3789 17.9697L16.5469 18.7901C16.418 18.919 16.2539 18.9776 16.1016 18.9776C15.9258 18.9776 15.75 18.9072 15.6328 18.8486C14.9062 18.4619 13.6641 17.3955 12.5039 16.2471C11.3555 15.0986 10.2891 13.8565 9.91406 13.1299C9.85547 13.001 9.78516 12.8369 9.78516 12.6611C9.78516 12.5088 9.83203 12.3564 9.96094 12.2275L10.793 11.3721C11.3086 10.833 11.625 10.3643 11.625 9.82519C11.625 9.40332 11.4375 8.94629 11.0391 8.3955L8.51953 4.84472C8.12109 4.28222 7.53516 4.03613 6.90234 4.03613C6.12891 4.03613 5.33203 4.38769 4.64062 5.05566C3.50391 6.1455 3 7.49316 3 8.98144C3 12.3447 5.56641 16.4229 8.95312 19.7979Z" fill="#D6A62B"/>
</g>
<defs>
<clipPath id="clip0_64_373">
<rect width="21.7266" height="22.6055" fill="white" transform="translate(3 3.19238)"/>
</clipPath>
</defs>
</svg>
