<svg width="24" height="39" viewBox="0 0 24 39" fill="none" xmlns="http://www.w3.org/2000/svg">
<path d="M11.4384 0.584389C11.3448 0.946892 11.1464 1.60627 10.873 2.46877C9.615 6.42501 7.97881 10.2969 5.94199 14.1406C5.52265 14.9313 5.2643 15.3938 4.3058 17.0625C3.82655 17.8969 3.30986 18.8031 3.15635 19.0781C1.20939 22.5594 0.408139 24.6906 0.0674215 27.2656C0.00377098 27.7563 0.00377098 29.3688 0.0711657 29.8281C0.411883 32.2563 1.43404 34.1625 3.29113 35.8281C5.21937 37.5594 7.63435 38.5875 10.5585 38.925C11.2138 39.0031 12.8986 39.0031 13.5426 38.9281C15.7929 38.6656 17.6462 38.0156 19.4322 36.8625C19.9339 36.5375 21.0159 35.6438 21.4203 35.2188C22.7645 33.7969 23.5994 32.1344 23.9102 30.25C23.9925 29.7563 24.0038 28.3219 23.9326 27.875C23.7155 26.5563 23.3411 25.5188 22.6334 24.2875C21.7947 22.8344 20.7651 21.575 18.3052 18.9969C15.834 16.4094 14.8606 15.2281 13.8946 13.6406C12.3445 11.1031 11.4234 8.26564 11.195 5.35939C11.1464 4.71564 11.1464 3.29689 11.195 2.68127C11.2475 2.06564 11.3635 1.18439 11.4571 0.725014C11.4983 0.528141 11.5245 0.35939 11.517 0.353138C11.5095 0.346889 11.4758 0.450016 11.4384 0.584389Z" fill="#D6A62B"/>
</svg>
