<svg width="21" height="26" viewBox="0 0 21 26" fill="none" xmlns="http://www.w3.org/2000/svg">
<path d="M1.10621 17.748C1.6035 18.0351 2.04386 18.0459 2.8224 17.8458L11.4055 15.5889C11.4855 15.5674 11.5496 15.5503 11.6003 15.5796C11.6409 15.603 11.6682 15.6729 11.6896 15.753L14.0165 24.3087C14.2426 25.0888 14.4619 25.459 14.9592 25.7461C15.6493 26.1445 16.3702 25.857 16.7686 25.167C16.9913 24.7812 17.1027 24.2367 17.1907 23.7327L20.8555 2.73654C21.0464 1.65595 20.8038 0.97461 20.2253 0.640625C19.6367 0.30078 18.9355 0.437199 18.0951 1.14279L1.73416 14.8088C1.35183 15.1429 0.9258 15.5058 0.7031 15.8916C0.3047 16.5816 0.416098 17.3496 1.10621 17.748Z" fill="#FFFDFD"/>
</svg>
