<svg width="29" height="29" viewBox="0 0 29 29" fill="none" xmlns="http://www.w3.org/2000/svg">
<path d="M23.2129 2.43237H5.29292C3.74732 2.43237 2.49292 3.68677 2.49292 5.23237V23.1524C2.49292 24.698 3.74732 25.9524 5.29292 25.9524H23.2129C24.7585 25.9524 26.0129 24.698 26.0129 23.1524V5.23237C26.0129 3.68677 24.7585 2.43237 23.2129 2.43237ZM21.3761 18.6724L19.2873 18.6668C19.2873 18.6668 19.2425 18.6724 19.1697 18.6724C19.0017 18.6724 18.6545 18.6276 18.2457 18.3476C17.5121 17.838 16.8121 16.5724 16.2577 16.5724C16.2185 16.5724 16.1849 16.578 16.1513 16.5892C15.6697 16.7404 15.5241 17.222 15.5241 17.81C15.5241 18.0172 15.3785 18.1124 14.9865 18.1124H13.9057C12.6961 18.1124 11.5257 18.0844 10.2097 16.6452C8.27212 14.5228 6.45772 10.7484 6.45772 10.7484C6.45772 10.7484 6.35692 10.53 6.46332 10.4012C6.56412 10.2836 6.79932 10.2724 6.88892 10.2724C6.91132 10.2724 6.92252 10.2724 6.92252 10.2724H9.16252C9.16252 10.2724 9.36972 10.3116 9.52092 10.4236C9.64972 10.5188 9.71692 10.6924 9.71692 10.6924C9.71692 10.6924 10.0977 11.4316 10.5737 12.266C11.3745 13.6436 11.8057 14.1028 12.1137 14.1028C12.1641 14.1028 12.2145 14.0916 12.2649 14.0636C12.7241 13.8116 12.5897 11.7732 12.5897 11.7732C12.5897 11.7732 12.5953 11.034 12.3545 10.7092C12.1697 10.4516 11.8169 10.3788 11.6601 10.3564C11.5369 10.3396 11.7385 10.0484 12.0073 9.91397C12.3545 9.74597 12.9313 9.71237 13.6257 9.71237H13.9617C14.6169 9.72357 14.6337 9.79077 14.8913 9.85237C15.6641 10.0372 15.4009 10.7596 15.4009 12.49C15.4009 13.0444 15.3001 13.8228 15.6977 14.086C15.7257 14.1028 15.7649 14.114 15.8153 14.114C16.0729 14.114 16.6273 13.7836 17.5121 12.2884C18.0049 11.4372 18.3857 10.5916 18.3857 10.5916C18.3857 10.5916 18.4697 10.4404 18.5985 10.362C18.7217 10.2892 18.7217 10.2892 18.8841 10.2892H18.9009C19.0801 10.2892 20.8609 10.2724 21.2529 10.2724H21.2977C21.6729 10.2724 22.0145 10.278 22.0761 10.5076C22.1657 10.8548 21.8017 11.4764 20.8441 12.7644C19.2649 14.8756 19.0857 14.7188 20.3961 15.9396C21.6505 17.1044 21.9081 17.67 21.9529 17.7428C22.4737 18.6052 21.3761 18.6724 21.3761 18.6724Z" fill="#FFFDFD"/>
</svg>
