<svg width="29" height="29" viewBox="0 0 29 29" fill="none" xmlns="http://www.w3.org/2000/svg">
<g clip-path="url(#clip0_91_116)">
<path d="M26.1591 14.2393C26.1591 7.70018 20.7334 2.28618 14.206 2.28618C7.66699 2.28618 2.25293 7.71188 2.25293 14.251C2.25293 20.7783 7.66699 26.1924 14.206 26.1924C20.7334 26.1924 26.1591 20.7666 26.1591 14.2393ZM24.167 14.2393C24.167 19.7705 19.7373 24.1885 14.206 24.1885C8.67481 24.1885 4.24512 19.7822 4.24512 14.251C4.24512 8.71968 8.67481 4.27828 14.206 4.27828C19.7373 4.27828 24.167 8.70798 24.167 14.2393Z" fill="#FFFDFD"/>
<path d="M15.3193 22.2314C16.1865 22.2314 16.8779 21.7979 16.8779 20.9072C16.8779 20.251 16.8427 19.4775 16.4443 18.165C16.1982 17.4033 15.8467 17.0752 15.0263 17.0635L14.2881 17.0518C14.1591 17.0518 14.0654 16.9814 14.0068 16.8057C13.8779 16.4072 13.7138 15.4932 13.7138 14.251C13.7138 13.0088 13.8779 12.0947 14.0068 11.6963C14.0654 11.5205 14.1591 11.4502 14.2881 11.4502L15.0263 11.4385C15.8467 11.4151 16.1982 11.0869 16.4443 10.3369C16.8427 9.02439 16.8779 8.25098 16.8779 7.59468C16.8779 6.70408 16.1865 6.27048 15.3193 6.27048H15.2021C12.0615 6.27048 10.5967 10.3955 10.5967 14.251C10.5967 18.1064 12.0615 22.2314 15.2021 22.2314H15.3193Z" fill="#FFFDFD"/>
</g>
<defs>
<clipPath id="clip0_91_116">
<rect width="23.9062" height="23.918" fill="white" transform="matrix(0 -1 1 0 2.25293 26.1924)"/>
</clipPath>
</defs>
</svg>
